<svg width="939" height="261" viewBox="0 0 939 261" fill="none" xmlns="http://www.w3.org/2000/svg">
<mask id="path-1-inside-1_80_33" fill="white">
<path fill-rule="evenodd" clip-rule="evenodd" d="M516.469 0.727793C500.726 3.97046 488.899 15.7316 485.781 31.2422C484.67 36.7732 485.043 45.725 486.594 50.7324C490.349 62.8523 498.876 71.4423 511.426 75.7454C521.915 79.3417 536.738 78.317 546.588 73.3136C552.494 70.3134 560.003 63.3427 560.003 60.8594C560.003 60.0051 558.389 58.5885 553.159 54.8543C549.395 52.1659 545.991 49.9669 545.595 49.9669C545.199 49.9669 543.553 51.1468 541.935 52.589C540.318 54.0312 537.515 55.9215 535.705 56.79C532.597 58.2812 532.077 58.369 526.34 58.3746C520.752 58.3802 520.041 58.2695 517.463 56.9947C513.109 54.8426 510.647 52.4104 508.605 48.2445C503.558 37.9495 507.458 25.553 517.14 21.1172C525.435 17.3157 534.897 18.985 541.964 25.4963C543.472 26.8855 545.076 28.0225 545.528 28.0225C546.508 28.0225 560.009 18.3935 560.374 17.4336C560.766 16.4058 558.11 12.9115 554.848 10.1639C546.35 3.00541 537.474 -0.0923204 525.729 0.00209147C522.445 0.0286288 518.279 0.355249 516.469 0.727793ZM812.347 0.980406C798.184 4.01996 786.238 15.5265 782.931 29.3126C781.691 34.4818 781.793 43.9485 783.143 49.0156C785.173 56.6329 789.815 64.0623 795.514 68.8186C800.527 73.0029 810.968 77.5249 815.615 77.5249C816.184 77.5249 816.65 77.6642 816.65 77.8352C816.65 78.146 810.774 90.8385 809.341 93.6244C808.87 94.5379 808.758 95.2891 809.048 95.5816C809.582 96.1205 820.394 96.1475 821.253 95.6122C821.562 95.4203 823.727 91.3412 826.066 86.5476L830.317 77.8321L835.297 76.7058C840.899 75.4397 845.78 73.1605 850.415 69.6479C853.495 67.3136 858.159 61.7525 858.159 60.4144C858.159 59.6004 844.338 49.9669 843.171 49.9669C842.722 49.9669 841.122 51.1039 839.614 52.493C838.106 53.8827 835.345 55.777 833.479 56.7033C830.235 58.3139 829.83 58.3874 824.243 58.3874C818.671 58.3874 818.245 58.3103 815.049 56.7242C810.765 54.5982 807.79 51.5989 805.815 47.4152C804.371 44.3588 804.248 43.6765 804.248 38.7283C804.248 33.701 804.353 33.1432 805.893 29.9898C808.724 24.194 813.859 20.4818 820.734 19.2606C827.021 18.1445 834.516 20.6461 839.477 25.5178C840.88 26.8952 842.386 28.0225 842.823 28.0225C843.628 28.0225 856.811 18.7773 857.418 17.7862C858.126 16.6318 856.993 14.6084 853.981 11.6459C848.346 6.10518 841.453 2.4318 833.556 0.763006C828.501 -0.305123 817.827 -0.195914 812.347 0.980406ZM593.809 1.86788C592.632 3.22843 592.739 2.97326 580.982 32.3603C566.368 68.889 564.473 73.8546 564.656 75.1437C564.775 75.975 565.295 76.321 566.837 76.5956C569.842 77.1299 583.03 77.0881 584.462 76.5395C585.471 76.1526 586.11 74.9243 587.912 69.9062L590.122 63.7479L603.101 63.7469L616.08 63.7459L617.993 69.3795C619.045 72.4782 620.191 75.406 620.539 75.8862C621.08 76.6323 622.338 76.7849 629.186 76.936C633.593 77.0335 637.997 76.8993 638.971 76.6385C642.203 75.7729 643.183 78.7895 624.178 31.0845C618.084 15.7872 612.763 2.75484 612.355 2.12304C611.634 1.00745 611.371 0.974791 603.097 0.974791C595.619 0.974791 594.488 1.08349 593.809 1.86788ZM649.855 1.67038C648.858 2.41343 648.843 2.99266 648.884 38.7227C648.922 72.2409 648.991 75.0865 649.789 75.8898C650.577 76.6813 652.48 76.7564 671.009 76.7252C688.465 76.6961 691.832 76.568 694.654 75.824C702.561 73.7387 708.132 69.4938 710.991 63.3759C712.469 60.2129 712.608 59.4826 712.616 54.8043C712.624 50.0455 712.509 49.4535 710.962 46.2848C709.064 42.3991 706.674 40.2159 702.404 38.466C699.91 37.4443 699.73 37.2764 700.795 36.9625C703.452 36.1807 707.09 33.1355 708.835 30.2322C710.568 27.3494 710.6 27.1958 710.6 21.6632C710.6 16.543 710.472 15.7678 709.2 13.1585C706.799 8.23021 701.964 4.45986 695.16 2.20878C692.703 1.39633 689.939 1.26619 671.622 1.10186C653.893 0.942637 650.719 1.02583 649.855 1.67038ZM722.785 1.77653C722.076 2.49099 721.989 6.56755 721.989 38.9687C721.989 72.196 722.062 75.4193 722.827 76.0592C723.511 76.6318 728.26 76.7594 748.937 76.7594C773.37 76.7594 774.234 76.7268 774.929 75.7689C775.938 74.3767 775.963 59.7837 774.958 58.3981C774.314 57.5096 773.272 57.4463 758.761 57.4075L743.252 57.3667L743.251 52.1358L743.25 46.9049H754.926C762.007 46.9049 766.988 46.6972 767.581 46.3767C768.484 45.8893 768.56 45.2366 768.56 37.9434V30.0383L767.168 29.5025C766.296 29.1662 761.574 29.0279 754.513 29.132L743.249 29.2983L743.25 24.0674L743.25 18.8365H758.183C772.442 18.8365 773.162 18.7906 774.129 17.8158C775.044 16.8926 775.141 16.1149 775.141 9.68671C775.141 3.90513 774.993 2.42924 774.346 1.77653C773.644 1.0692 770.604 0.974791 748.565 0.974791C726.526 0.974791 723.487 1.0692 722.785 1.77653ZM890.86 2.12304C890.204 3.15137 884.972 16.1884 867.175 61.1437C862.104 73.951 861.707 75.1958 862.447 75.9434C863.104 76.6073 864.748 76.7895 871.263 76.9212C882.871 77.1554 882.237 77.4759 884.988 69.9704L887.266 63.7546L900.174 63.7505L913.083 63.7459L915.108 69.7291C916.723 74.5037 917.388 75.8424 918.398 76.3558C919.937 77.1386 934.878 77.2692 936.842 76.517C937.641 76.2103 938.14 75.6249 938.14 74.9921C938.14 74.4277 932.017 58.5185 924.533 39.6392C917.049 20.7594 910.782 4.83649 910.606 4.2542C910.431 3.67241 909.825 2.69615 909.261 2.08528C908.287 1.03195 907.807 0.974791 899.913 0.974791C891.839 0.974791 891.57 1.00898 890.86 2.12304ZM686.904 18.4701C689.164 19.6893 690.098 21.2555 690.098 23.8235C690.098 26.6579 688.989 28.7911 686.926 29.9255C685.584 30.6635 684.013 30.8258 678.202 30.8273C674.305 30.8283 671.058 30.6574 670.989 30.4466C670.92 30.2363 670.862 27.2009 670.862 23.7015V17.3397L678.076 17.4693C683.725 17.5709 685.64 17.7883 686.904 18.4701ZM606.574 35.2065C608.384 40.8258 609.928 45.699 610.005 46.0363C610.11 46.4971 608.367 46.6109 603 46.4946C596.525 46.3542 595.887 46.2588 596.188 45.4739C597.167 42.9146 602.524 26.0873 602.524 25.5698C602.524 23.4708 603.68 26.2215 606.574 35.2065ZM903.854 35.8184C905.728 41.5096 907.261 46.2751 907.261 46.4078C907.261 46.6068 903.877 46.6079 894.024 46.4114C893.328 46.3971 893.751 44.6512 896.555 35.9495C898.407 30.2047 900.039 25.4969 900.184 25.4877C900.328 25.4785 901.98 30.1271 903.854 35.8184ZM687.155 46.4124C689.98 47.2034 691.617 49.477 691.617 52.6089C691.617 54.8299 691.393 55.3979 689.941 56.8615C687.87 58.9493 686.061 59.2621 677.281 59.0529L670.791 58.8977L670.809 52.6461C670.819 49.2075 670.836 46.2797 670.845 46.1394C670.878 45.6515 685.3 45.8929 687.155 46.4124Z"/>
</mask>
<path fill-rule="evenodd" clip-rule="evenodd" d="M516.469 0.727793C500.726 3.97046 488.899 15.7316 485.781 31.2422C484.67 36.7732 485.043 45.725 486.594 50.7324C490.349 62.8523 498.876 71.4423 511.426 75.7454C521.915 79.3417 536.738 78.317 546.588 73.3136C552.494 70.3134 560.003 63.3427 560.003 60.8594C560.003 60.0051 558.389 58.5885 553.159 54.8543C549.395 52.1659 545.991 49.9669 545.595 49.9669C545.199 49.9669 543.553 51.1468 541.935 52.589C540.318 54.0312 537.515 55.9215 535.705 56.79C532.597 58.2812 532.077 58.369 526.34 58.3746C520.752 58.3802 520.041 58.2695 517.463 56.9947C513.109 54.8426 510.647 52.4104 508.605 48.2445C503.558 37.9495 507.458 25.553 517.14 21.1172C525.435 17.3157 534.897 18.985 541.964 25.4963C543.472 26.8855 545.076 28.0225 545.528 28.0225C546.508 28.0225 560.009 18.3935 560.374 17.4336C560.766 16.4058 558.11 12.9115 554.848 10.1639C546.35 3.00541 537.474 -0.0923204 525.729 0.00209147C522.445 0.0286288 518.279 0.355249 516.469 0.727793ZM812.347 0.980406C798.184 4.01996 786.238 15.5265 782.931 29.3126C781.691 34.4818 781.793 43.9485 783.143 49.0156C785.173 56.6329 789.815 64.0623 795.514 68.8186C800.527 73.0029 810.968 77.5249 815.615 77.5249C816.184 77.5249 816.65 77.6642 816.65 77.8352C816.65 78.146 810.774 90.8385 809.341 93.6244C808.87 94.5379 808.758 95.2891 809.048 95.5816C809.582 96.1205 820.394 96.1475 821.253 95.6122C821.562 95.4203 823.727 91.3412 826.066 86.5476L830.317 77.8321L835.297 76.7058C840.899 75.4397 845.78 73.1605 850.415 69.6479C853.495 67.3136 858.159 61.7525 858.159 60.4144C858.159 59.6004 844.338 49.9669 843.171 49.9669C842.722 49.9669 841.122 51.1039 839.614 52.493C838.106 53.8827 835.345 55.777 833.479 56.7033C830.235 58.3139 829.83 58.3874 824.243 58.3874C818.671 58.3874 818.245 58.3103 815.049 56.7242C810.765 54.5982 807.79 51.5989 805.815 47.4152C804.371 44.3588 804.248 43.6765 804.248 38.7283C804.248 33.701 804.353 33.1432 805.893 29.9898C808.724 24.194 813.859 20.4818 820.734 19.2606C827.021 18.1445 834.516 20.6461 839.477 25.5178C840.88 26.8952 842.386 28.0225 842.823 28.0225C843.628 28.0225 856.811 18.7773 857.418 17.7862C858.126 16.6318 856.993 14.6084 853.981 11.6459C848.346 6.10518 841.453 2.4318 833.556 0.763006C828.501 -0.305123 817.827 -0.195914 812.347 0.980406ZM593.809 1.86788C592.632 3.22843 592.739 2.97326 580.982 32.3603C566.368 68.889 564.473 73.8546 564.656 75.1437C564.775 75.975 565.295 76.321 566.837 76.5956C569.842 77.1299 583.03 77.0881 584.462 76.5395C585.471 76.1526 586.11 74.9243 587.912 69.9062L590.122 63.7479L603.101 63.7469L616.08 63.7459L617.993 69.3795C619.045 72.4782 620.191 75.406 620.539 75.8862C621.08 76.6323 622.338 76.7849 629.186 76.936C633.593 77.0335 637.997 76.8993 638.971 76.6385C642.203 75.7729 643.183 78.7895 624.178 31.0845C618.084 15.7872 612.763 2.75484 612.355 2.12304C611.634 1.00745 611.371 0.974791 603.097 0.974791C595.619 0.974791 594.488 1.08349 593.809 1.86788ZM649.855 1.67038C648.858 2.41343 648.843 2.99266 648.884 38.7227C648.922 72.2409 648.991 75.0865 649.789 75.8898C650.577 76.6813 652.48 76.7564 671.009 76.7252C688.465 76.6961 691.832 76.568 694.654 75.824C702.561 73.7387 708.132 69.4938 710.991 63.3759C712.469 60.2129 712.608 59.4826 712.616 54.8043C712.624 50.0455 712.509 49.4535 710.962 46.2848C709.064 42.3991 706.674 40.2159 702.404 38.466C699.91 37.4443 699.73 37.2764 700.795 36.9625C703.452 36.1807 707.09 33.1355 708.835 30.2322C710.568 27.3494 710.6 27.1958 710.6 21.6632C710.6 16.543 710.472 15.7678 709.2 13.1585C706.799 8.23021 701.964 4.45986 695.16 2.20878C692.703 1.39633 689.939 1.26619 671.622 1.10186C653.893 0.942637 650.719 1.02583 649.855 1.67038ZM722.785 1.77653C722.076 2.49099 721.989 6.56755 721.989 38.9687C721.989 72.196 722.062 75.4193 722.827 76.0592C723.511 76.6318 728.26 76.7594 748.937 76.7594C773.37 76.7594 774.234 76.7268 774.929 75.7689C775.938 74.3767 775.963 59.7837 774.958 58.3981C774.314 57.5096 773.272 57.4463 758.761 57.4075L743.252 57.3667L743.251 52.1358L743.25 46.9049H754.926C762.007 46.9049 766.988 46.6972 767.581 46.3767C768.484 45.8893 768.56 45.2366 768.56 37.9434V30.0383L767.168 29.5025C766.296 29.1662 761.574 29.0279 754.513 29.132L743.249 29.2983L743.25 24.0674L743.25 18.8365H758.183C772.442 18.8365 773.162 18.7906 774.129 17.8158C775.044 16.8926 775.141 16.1149 775.141 9.68671C775.141 3.90513 774.993 2.42924 774.346 1.77653C773.644 1.0692 770.604 0.974791 748.565 0.974791C726.526 0.974791 723.487 1.0692 722.785 1.77653ZM890.86 2.12304C890.204 3.15137 884.972 16.1884 867.175 61.1437C862.104 73.951 861.707 75.1958 862.447 75.9434C863.104 76.6073 864.748 76.7895 871.263 76.9212C882.871 77.1554 882.237 77.4759 884.988 69.9704L887.266 63.7546L900.174 63.7505L913.083 63.7459L915.108 69.7291C916.723 74.5037 917.388 75.8424 918.398 76.3558C919.937 77.1386 934.878 77.2692 936.842 76.517C937.641 76.2103 938.14 75.6249 938.14 74.9921C938.14 74.4277 932.017 58.5185 924.533 39.6392C917.049 20.7594 910.782 4.83649 910.606 4.2542C910.431 3.67241 909.825 2.69615 909.261 2.08528C908.287 1.03195 907.807 0.974791 899.913 0.974791C891.839 0.974791 891.57 1.00898 890.86 2.12304ZM686.904 18.4701C689.164 19.6893 690.098 21.2555 690.098 23.8235C690.098 26.6579 688.989 28.7911 686.926 29.9255C685.584 30.6635 684.013 30.8258 678.202 30.8273C674.305 30.8283 671.058 30.6574 670.989 30.4466C670.92 30.2363 670.862 27.2009 670.862 23.7015V17.3397L678.076 17.4693C683.725 17.5709 685.64 17.7883 686.904 18.4701ZM606.574 35.2065C608.384 40.8258 609.928 45.699 610.005 46.0363C610.11 46.4971 608.367 46.6109 603 46.4946C596.525 46.3542 595.887 46.2588 596.188 45.4739C597.167 42.9146 602.524 26.0873 602.524 25.5698C602.524 23.4708 603.68 26.2215 606.574 35.2065ZM903.854 35.8184C905.728 41.5096 907.261 46.2751 907.261 46.4078C907.261 46.6068 903.877 46.6079 894.024 46.4114C893.328 46.3971 893.751 44.6512 896.555 35.9495C898.407 30.2047 900.039 25.4969 900.184 25.4877C900.328 25.4785 901.98 30.1271 903.854 35.8184ZM687.155 46.4124C689.98 47.2034 691.617 49.477 691.617 52.6089C691.617 54.8299 691.393 55.3979 689.941 56.8615C687.87 58.9493 686.061 59.2621 677.281 59.0529L670.791 58.8977L670.809 52.6461C670.819 49.2075 670.836 46.2797 670.845 46.1394C670.878 45.6515 685.3 45.8929 687.155 46.4124Z" fill="#000C2B" stroke="#EA1198" style="fill:#000C2B;fill:color(display-p3 0.0000 0.0471 0.1686);fill-opacity:1;stroke:#EA1198;stroke:color(display-p3 0.9176 0.0667 0.5961);stroke-opacity:1;" stroke-width="2" mask="url(#path-1-inside-1_80_33)"/>
<path d="M10.8631 154.943C17.1232 98.8935 17.3836 97.1447 19.7827 95.1109C21.658 93.5206 24.3732 93.2978 41.8394 93.2978C59.2943 93.2978 62.0261 93.5216 63.9282 95.1109C65.3147 96.2692 69.0415 105.151 74.2519 119.717C88.1681 158.618 99.3494 189.024 100.688 191.605C101.86 193.866 102.639 192.087 109.765 170.884C121.421 136.205 134.187 99.6157 135.513 97.0867C136.159 95.8579 137.199 94.509 137.824 94.0904C138.449 93.6718 147.821 93.3227 158.652 93.3134C173.26 93.302 178.82 93.648 180.191 94.653C181.579 95.6693 182.409 98.8366 183.521 107.345C186.616 131.043 199.303 233.163 200.54 244.341C202.329 260.516 203.626 259.63 178.463 259.415C160.225 259.257 158.521 259.084 157.029 257.237C155.896 255.834 155.015 250.736 154.102 240.312C153.384 232.107 151.658 214.205 150.269 200.53C148.984 187.889 147.896 177.174 147.716 175.399L147.691 175.146C147.616 174.396 141.893 190.081 129.546 224.877C123.581 241.687 117.799 256.357 116.697 257.477C114.905 259.299 113.217 259.518 100.767 259.549C88.1701 259.581 86.6503 259.387 84.8422 257.512C83.7346 256.365 76.7719 237.887 69.2254 216.07C61.7357 194.417 55.3506 176.001 55.0355 175.146C53.6975 171.511 51.7571 188.308 47.4383 240.936C46.805 248.654 45.7346 255.338 44.9308 256.591C43.0297 259.559 40.4343 259.892 20.5586 259.728C1.25331 259.567 -0.0082258 259.153 3.97924e-05 252.983C0.00313939 250.915 1.64076 235.237 3.64 218.142C5.63924 201.048 8.88968 172.608 10.8631 154.943Z" fill="#EA1198" style="fill:#EA1198;fill:color(display-p3 0.9176 0.0667 0.5961);fill-opacity:1;"/>
<path d="M231.431 176.647C231.431 105.217 231.607 96.378 233.055 94.9255C235.316 92.6586 274.368 92.4938 277.429 94.7389C279.331 96.1335 279.396 98.7703 279.435 176.032C279.473 251.324 279.37 255.988 277.631 257.734C275.985 259.387 273.593 259.585 255.32 259.585C239.492 259.585 234.466 259.262 233.142 258.163C231.577 256.862 231.431 249.931 231.431 176.647Z" fill="#EA1198" style="fill:#EA1198;fill:color(display-p3 0.9176 0.0667 0.5961);fill-opacity:1;"/>
<path d="M313.054 176.647C313.054 105.217 313.23 96.378 314.677 94.9255C317.164 92.4317 356.966 92.5083 359.725 95.0125C361.514 96.637 361.614 99.9462 361.614 157.694V218.66H395.067C424.953 218.66 428.67 218.844 429.938 220.377C431.924 222.782 431.99 256.258 430.012 258.239C427.977 260.28 317.22 260.206 314.763 258.163C313.2 256.862 313.054 249.899 313.054 176.647Z" fill="#EA1198" style="fill:#EA1198;fill:color(display-p3 0.9176 0.0667 0.5961);fill-opacity:1;"/>
<path d="M454.602 96.523L456.899 94.9109C458.905 93.5019 465.926 93.2978 512.494 93.2978C555.728 93.2978 566.155 93.563 567.709 94.7027C569.43 95.9646 569.635 97.7964 569.715 112.663C569.782 125.272 569.466 129.629 568.387 130.943C567.118 132.486 563.539 132.668 534.549 132.668H502.13L502.051 139.143C502.008 142.705 501.892 148.183 501.793 151.317L501.613 157.015L528.622 157.291C552.15 157.531 555.811 157.786 557.035 159.262C558.085 160.529 558.439 164.994 558.439 176.941C558.439 191.566 558.268 193.049 556.434 194.395C554.825 195.576 549.198 195.868 528.021 195.874L501.613 195.883L501.274 207.271L500.936 218.66H534.985C565.367 218.66 569.187 218.845 570.453 220.37C572.296 222.593 573.056 249.619 571.427 255.078C570.372 258.614 569.982 258.895 565.403 259.395C562.709 259.689 537.445 259.853 509.262 259.758C467.539 259.617 457.701 259.32 456.31 258.163C454.749 256.863 454.602 249.877 454.602 176.632V96.523Z" fill="#EA1198" style="fill:#EA1198;fill:color(display-p3 0.9176 0.0667 0.5961);fill-opacity:1;"/>
<path d="M596.667 176.061C596.667 98.2419 596.718 96.2019 598.673 94.768C600.226 93.6293 604.8 93.2978 618.939 93.2978C635.927 93.2978 637.392 93.4491 639.959 95.4735C642.42 97.4161 670.987 135.179 697.291 171.261C702.587 178.526 707.161 184.471 707.456 184.471C707.751 184.471 707.818 164.621 707.606 140.361C707.232 97.6565 707.284 96.2029 709.225 94.7742C710.792 93.62 715.474 93.2978 730.664 93.2978C748.72 93.2978 750.244 93.4449 752.164 95.3699C754.194 97.4058 754.23 98.8231 754.23 175.615C754.23 232.017 753.902 254.512 753.05 256.386C751.474 259.855 746.701 260.51 727.678 259.872C712.832 259.373 712.707 259.348 709.793 256.369C707.193 253.709 676.862 212.926 653.235 180.319L644.711 168.556V212.648C644.711 252.413 644.544 256.88 643.001 258.163C641.679 259.262 636.652 259.585 620.823 259.585C602.551 259.585 600.157 259.386 598.512 257.734C596.774 255.991 596.667 251.297 596.667 176.061Z" fill="#EA1198" style="fill:#EA1198;fill:color(display-p3 0.9176 0.0667 0.5961);fill-opacity:1;"/>
<path fill-rule="evenodd" clip-rule="evenodd" d="M837.231 94.8291C835.802 95.833 831.925 104.319 825.988 119.435C821.004 132.127 807.529 166.288 796.044 195.349C773.881 251.427 772.02 255.681 773.26 256.999C773.479 257.231 773.794 257.372 774.112 257.691C776.221 259.805 792.433 260.74 807.438 259.612L817.461 258.857L819.773 253.523C821.045 250.589 823.404 244.342 825.016 239.641L827.945 231.093H855.55H883.155L887.529 243.053C889.936 249.631 892.679 255.973 893.626 257.146C895.204 259.1 896.782 259.324 912.353 259.807C936.089 260.543 940.052 259.152 937.196 251.083C935.052 245.025 924.961 219.133 906.591 172.556C897.377 149.193 886.94 122.618 883.399 113.501C879.856 104.384 876.027 96.1076 874.889 95.1109C873.101 93.5444 870.547 93.2978 856.116 93.2978C843.048 93.2978 838.937 93.6314 837.231 94.8291ZM870.982 193.487C870.982 193.319 867.701 183.657 863.691 172.018C857.198 153.165 855.484 148.665 855.484 150.463C855.484 150.754 852.413 159.806 848.66 170.58C844.909 181.354 841.6 190.985 841.308 191.982C840.82 193.65 841.984 193.795 855.879 193.795C864.186 193.795 870.982 193.656 870.982 193.487Z" fill="#EA1198" style="fill:#EA1198;fill:color(display-p3 0.9176 0.0667 0.5961);fill-opacity:1;"/>
<mask id="path-3-inside-2_80_33" fill="white">
<path d="M88.1228 24.3302C88.1228 4.57484 88.2082 2.23217 88.9594 1.39173C89.7111 0.550785 90.7222 0.455584 98.9034 0.455584C106.669 0.455584 108.147 0.580472 108.935 1.30267C109.802 2.09704 109.86 3.45699 109.86 23.2041C109.86 40.3864 110.001 44.8077 110.628 47.244C111.853 52.0056 113.769 54.3549 118.201 56.5307C121.058 57.9332 126.214 58.2285 129.647 57.1869C132.472 56.3301 135.367 53.5872 137.001 50.2183L138.422 47.2885L138.573 24.7801C138.706 4.97407 138.822 2.16256 139.536 1.36358C140.255 0.559487 141.369 0.455584 149.272 0.455584C156.179 0.455584 158.419 0.619883 159.178 1.18188C160.115 1.87542 160.166 2.78955 160.307 21.5273C160.463 42.359 160.067 49.3604 158.424 54.7153C155.356 64.7217 146.585 73.3164 136.328 76.3695C125.933 79.463 112.692 78.0422 104.403 72.9443C95.7571 67.6263 90.4608 59.699 88.6541 49.3697C88.3376 47.5598 88.1228 37.4424 88.1228 24.3302Z"/>
<path d="M171.533 38.5331C171.533 5.56165 171.608 2.24394 172.37 1.39173C173.159 0.508815 174.632 0.455584 198.307 0.455584C219.169 0.455584 223.574 0.577912 224.39 1.18085C225.269 1.8314 225.388 2.68309 225.535 9.41526C225.679 15.9647 225.588 17.0498 224.825 17.903C223.999 18.8269 223.065 18.8817 208.105 18.8817H192.259V24.2559V29.6302H205.132C217.342 29.6302 218.032 29.6814 218.529 30.6201C218.816 31.1647 219.052 34.5684 219.052 38.184C219.052 47.7876 220.262 47.0326 204.869 47.0326H192.259V52.151V57.2693L207.299 57.2765C215.57 57.2801 222.834 57.4183 223.44 57.5826C224.046 57.7474 224.697 58.2623 224.887 58.7275C225.517 60.2738 225.759 73.8216 225.182 75.3115L224.638 76.7191H198.609C173.392 76.7191 172.563 76.6884 172.056 75.7292C171.71 75.0735 171.533 62.5121 171.533 38.5331Z"/>
<path fill-rule="evenodd" clip-rule="evenodd" d="M30.7465 0.709966C18.5524 3.03319 7.91786 11.5742 3.11949 22.8991C-1.08541 32.822 -0.808385 47.6688 3.7529 56.8839C8.44714 66.3677 15.2514 72.4386 24.8259 75.6867C34.9888 79.1339 48.5246 78.7772 57.3635 74.8294L60.2212 73.5529L63.4298 76.0931C65.1945 77.4904 67.1064 78.7797 67.6781 78.9589C68.5148 79.2209 69.6749 78.2981 73.618 74.2346C79.7403 67.9252 79.7843 67.6135 75.0334 64.1817L71.5484 61.6645L72.6757 60.1064C77.1081 53.9808 78.6716 48.4509 78.6878 38.8432C78.6984 32.4274 78.5862 31.5987 77.1192 27.2512C75.0016 20.9781 71.9214 15.8664 67.6771 11.5839C64.0601 7.93401 58.4686 4.24573 53.9538 2.53159C47.3568 0.0266655 38.1342 -0.69707 30.7465 0.709966ZM58.2972 39.0992C58.2972 30.7491 53.3902 23.48 46.0617 20.9746C42.1197 19.6264 35.8543 19.5568 32.4132 20.8225C24.9786 23.5568 20.3132 30.464 20.2409 38.8432C20.1539 48.908 26.4132 56.7365 36.1824 58.7813C39.0901 59.3899 44.4193 59.0817 44.9106 58.2771C45.0481 58.0524 44.3596 57.3676 43.3814 56.7554C40.912 55.2102 40.3195 53.947 41.3306 52.3839C43.2353 49.4408 48.8365 43.4498 49.6837 43.4498C50.1903 43.4498 51.7619 44.5031 53.1763 45.7904C54.5903 47.0777 55.9582 47.9984 56.2165 47.8372C57.1988 47.2225 58.2972 42.6098 58.2972 39.0992Z"/>
<path fill-rule="evenodd" clip-rule="evenodd" d="M236.745 38.8171C236.745 5.27759 236.818 1.99007 237.583 1.21566C238.343 0.445859 240.297 0.389045 258.688 0.603504C272.156 0.760638 279.804 1.04931 281.483 1.46441C286.323 2.66057 291.012 5.33389 293.997 8.59786C297.565 12.5001 298.924 16.258 298.924 22.226C298.924 25.8677 298.724 26.7992 297.351 29.5811C295.804 32.7166 292.206 36.2866 289.82 37.0528C288.263 37.5534 288.61 38.1139 291.066 39.0633C294.08 40.2288 298.11 44.151 299.454 47.2261C301.859 52.7314 301.135 61.3983 297.834 66.6062C295.002 71.074 289.613 74.6902 283.6 76.1566C280.243 76.9755 238.406 76.9658 237.431 76.1463C236.865 75.6708 236.745 69.1352 236.745 38.8171ZM276.462 47.2701C279.567 48.5835 280.59 52.7155 278.57 55.786C276.577 58.8156 274.403 59.4958 265.939 59.74L258.482 59.9554V53.2381V46.5208H266.587C272.559 46.5208 275.157 46.7178 276.462 47.2701ZM277.692 24.7816C277.692 21.6814 276.523 19.4882 274.389 18.5853C273.17 18.0699 270.528 17.858 265.323 17.858H257.977V24.5119V31.1657L264.422 31.1626C271.818 31.1596 274.252 30.6324 276.262 28.5978C277.419 27.4257 277.692 26.6984 277.692 24.7816Z"/>
<path fill-rule="evenodd" clip-rule="evenodd" d="M311.43 1.34413C310.612 2.25929 310.551 4.87375 310.551 38.9093C310.551 66.6789 310.697 75.6386 311.157 76.1049C311.586 76.5389 314.538 76.7191 321.213 76.7191C329.364 76.7191 330.705 76.608 330.97 75.9093C331.139 75.4641 331.277 70.1666 331.277 64.1371V53.1746H334.231C336.413 53.1746 337.389 53.4091 337.963 54.0704C338.39 54.5627 341.644 59.3423 345.196 64.6909C348.746 70.0396 352.112 74.9338 352.674 75.5674C353.67 76.6894 353.957 76.7191 363.909 76.7191C375.723 76.7191 376.163 76.5727 374.248 73.2729C372.88 70.9143 363.737 57.5877 360.749 53.5974C359.553 52 358.575 50.5766 358.575 50.4343C358.575 50.292 359.642 49.6409 360.947 48.9878C364.467 47.2261 368.461 43.027 370.202 39.2583C374.924 29.0416 372.889 16.842 365.182 9.15679C361.39 5.37637 358.075 3.51994 352.256 1.91739C348.548 0.896274 346.716 0.785206 330.26 0.582007C313.044 0.369083 312.273 0.400306 311.43 1.34413ZM345.571 36.693C353.237 34.3672 354.082 23.933 346.928 19.9197C344.92 18.7931 343.941 18.6324 337.975 18.4527L331.277 18.2511V27.7794V37.3077H337.411C340.785 37.3077 344.456 37.0314 345.571 36.693Z"/>
<path fill-rule="evenodd" clip-rule="evenodd" d="M407.899 1.60721C406.986 3.01783 405.281 7.21386 390.428 44.6004C381.642 66.7147 378.765 74.4798 379.003 75.4385L379.32 76.7191H389.32C395.887 76.7191 399.509 76.5266 399.872 76.1591C400.177 75.851 401.3 72.9791 402.367 69.7776L404.308 63.9559L417.124 63.8116C425.241 63.72 430.085 63.8551 430.334 64.1791C430.551 64.4606 431.445 66.8908 432.321 69.579C433.441 73.0197 433.859 74.8115 434.976 75.7409C436.363 76.895 438.829 76.7191 445.063 76.7191C451.934 76.7191 454.459 76.7448 455.015 75.6986C455.349 75.0692 454.97 74.052 454.396 72.4079C452.323 66.4721 427.436 3.60081 426.335 1.51867C425.8 0.506767 425.362 0.455584 417.209 0.455584C408.885 0.455584 408.623 0.487829 407.899 1.60721ZM424.203 45.88C424.113 45.5278 422.561 40.6935 420.753 35.1381C418.946 29.5821 417.321 25.0334 417.142 25.0298C416.844 25.0242 410.128 45.2545 410.134 46.1369C410.136 46.3478 413.339 46.5208 417.252 46.5208C422.699 46.5208 424.328 46.3708 424.203 45.88Z"/>
</mask>
<path d="M88.1228 24.3302C88.1228 4.57484 88.2082 2.23217 88.9594 1.39173C89.7111 0.550785 90.7222 0.455584 98.9034 0.455584C106.669 0.455584 108.147 0.580472 108.935 1.30267C109.802 2.09704 109.86 3.45699 109.86 23.2041C109.86 40.3864 110.001 44.8077 110.628 47.244C111.853 52.0056 113.769 54.3549 118.201 56.5307C121.058 57.9332 126.214 58.2285 129.647 57.1869C132.472 56.3301 135.367 53.5872 137.001 50.2183L138.422 47.2885L138.573 24.7801C138.706 4.97407 138.822 2.16256 139.536 1.36358C140.255 0.559487 141.369 0.455584 149.272 0.455584C156.179 0.455584 158.419 0.619883 159.178 1.18188C160.115 1.87542 160.166 2.78955 160.307 21.5273C160.463 42.359 160.067 49.3604 158.424 54.7153C155.356 64.7217 146.585 73.3164 136.328 76.3695C125.933 79.463 112.692 78.0422 104.403 72.9443C95.7571 67.6263 90.4608 59.699 88.6541 49.3697C88.3376 47.5598 88.1228 37.4424 88.1228 24.3302Z" fill="#000C2B" style="fill:#000C2B;fill:color(display-p3 0.0000 0.0471 0.1686);fill-opacity:1;"/>
<path d="M171.533 38.5331C171.533 5.56165 171.608 2.24394 172.37 1.39173C173.159 0.508815 174.632 0.455584 198.307 0.455584C219.169 0.455584 223.574 0.577912 224.39 1.18085C225.269 1.8314 225.388 2.68309 225.535 9.41526C225.679 15.9647 225.588 17.0498 224.825 17.903C223.999 18.8269 223.065 18.8817 208.105 18.8817H192.259V24.2559V29.6302H205.132C217.342 29.6302 218.032 29.6814 218.529 30.6201C218.816 31.1647 219.052 34.5684 219.052 38.184C219.052 47.7876 220.262 47.0326 204.869 47.0326H192.259V52.151V57.2693L207.299 57.2765C215.57 57.2801 222.834 57.4183 223.44 57.5826C224.046 57.7474 224.697 58.2623 224.887 58.7275C225.517 60.2738 225.759 73.8216 225.182 75.3115L224.638 76.7191H198.609C173.392 76.7191 172.563 76.6884 172.056 75.7292C171.71 75.0735 171.533 62.5121 171.533 38.5331Z" fill="#000C2B" style="fill:#000C2B;fill:color(display-p3 0.0000 0.0471 0.1686);fill-opacity:1;"/>
<path fill-rule="evenodd" clip-rule="evenodd" d="M30.7465 0.709966C18.5524 3.03319 7.91786 11.5742 3.11949 22.8991C-1.08541 32.822 -0.808385 47.6688 3.7529 56.8839C8.44714 66.3677 15.2514 72.4386 24.8259 75.6867C34.9888 79.1339 48.5246 78.7772 57.3635 74.8294L60.2212 73.5529L63.4298 76.0931C65.1945 77.4904 67.1064 78.7797 67.6781 78.9589C68.5148 79.2209 69.6749 78.2981 73.618 74.2346C79.7403 67.9252 79.7843 67.6135 75.0334 64.1817L71.5484 61.6645L72.6757 60.1064C77.1081 53.9808 78.6716 48.4509 78.6878 38.8432C78.6984 32.4274 78.5862 31.5987 77.1192 27.2512C75.0016 20.9781 71.9214 15.8664 67.6771 11.5839C64.0601 7.93401 58.4686 4.24573 53.9538 2.53159C47.3568 0.0266655 38.1342 -0.69707 30.7465 0.709966ZM58.2972 39.0992C58.2972 30.7491 53.3902 23.48 46.0617 20.9746C42.1197 19.6264 35.8543 19.5568 32.4132 20.8225C24.9786 23.5568 20.3132 30.464 20.2409 38.8432C20.1539 48.908 26.4132 56.7365 36.1824 58.7813C39.0901 59.3899 44.4193 59.0817 44.9106 58.2771C45.0481 58.0524 44.3596 57.3676 43.3814 56.7554C40.912 55.2102 40.3195 53.947 41.3306 52.3839C43.2353 49.4408 48.8365 43.4498 49.6837 43.4498C50.1903 43.4498 51.7619 44.5031 53.1763 45.7904C54.5903 47.0777 55.9582 47.9984 56.2165 47.8372C57.1988 47.2225 58.2972 42.6098 58.2972 39.0992Z" fill="#000C2B" style="fill:#000C2B;fill:color(display-p3 0.0000 0.0471 0.1686);fill-opacity:1;"/>
<path fill-rule="evenodd" clip-rule="evenodd" d="M236.745 38.8171C236.745 5.27759 236.818 1.99007 237.583 1.21566C238.343 0.445859 240.297 0.389045 258.688 0.603504C272.156 0.760638 279.804 1.04931 281.483 1.46441C286.323 2.66057 291.012 5.33389 293.997 8.59786C297.565 12.5001 298.924 16.258 298.924 22.226C298.924 25.8677 298.724 26.7992 297.351 29.5811C295.804 32.7166 292.206 36.2866 289.82 37.0528C288.263 37.5534 288.61 38.1139 291.066 39.0633C294.08 40.2288 298.11 44.151 299.454 47.2261C301.859 52.7314 301.135 61.3983 297.834 66.6062C295.002 71.074 289.613 74.6902 283.6 76.1566C280.243 76.9755 238.406 76.9658 237.431 76.1463C236.865 75.6708 236.745 69.1352 236.745 38.8171ZM276.462 47.2701C279.567 48.5835 280.59 52.7155 278.57 55.786C276.577 58.8156 274.403 59.4958 265.939 59.74L258.482 59.9554V53.2381V46.5208H266.587C272.559 46.5208 275.157 46.7178 276.462 47.2701ZM277.692 24.7816C277.692 21.6814 276.523 19.4882 274.389 18.5853C273.17 18.0699 270.528 17.858 265.323 17.858H257.977V24.5119V31.1657L264.422 31.1626C271.818 31.1596 274.252 30.6324 276.262 28.5978C277.419 27.4257 277.692 26.6984 277.692 24.7816Z" fill="#000C2B" style="fill:#000C2B;fill:color(display-p3 0.0000 0.0471 0.1686);fill-opacity:1;"/>
<path fill-rule="evenodd" clip-rule="evenodd" d="M311.43 1.34413C310.612 2.25929 310.551 4.87375 310.551 38.9093C310.551 66.6789 310.697 75.6386 311.157 76.1049C311.586 76.5389 314.538 76.7191 321.213 76.7191C329.364 76.7191 330.705 76.608 330.97 75.9093C331.139 75.4641 331.277 70.1666 331.277 64.1371V53.1746H334.231C336.413 53.1746 337.389 53.4091 337.963 54.0704C338.39 54.5627 341.644 59.3423 345.196 64.6909C348.746 70.0396 352.112 74.9338 352.674 75.5674C353.67 76.6894 353.957 76.7191 363.909 76.7191C375.723 76.7191 376.163 76.5727 374.248 73.2729C372.88 70.9143 363.737 57.5877 360.749 53.5974C359.553 52 358.575 50.5766 358.575 50.4343C358.575 50.292 359.642 49.6409 360.947 48.9878C364.467 47.2261 368.461 43.027 370.202 39.2583C374.924 29.0416 372.889 16.842 365.182 9.15679C361.39 5.37637 358.075 3.51994 352.256 1.91739C348.548 0.896274 346.716 0.785206 330.26 0.582007C313.044 0.369083 312.273 0.400306 311.43 1.34413ZM345.571 36.693C353.237 34.3672 354.082 23.933 346.928 19.9197C344.92 18.7931 343.941 18.6324 337.975 18.4527L331.277 18.2511V27.7794V37.3077H337.411C340.785 37.3077 344.456 37.0314 345.571 36.693Z" fill="#000C2B" style="fill:#000C2B;fill:color(display-p3 0.0000 0.0471 0.1686);fill-opacity:1;"/>
<path fill-rule="evenodd" clip-rule="evenodd" d="M407.899 1.60721C406.986 3.01783 405.281 7.21386 390.428 44.6004C381.642 66.7147 378.765 74.4798 379.003 75.4385L379.32 76.7191H389.32C395.887 76.7191 399.509 76.5266 399.872 76.1591C400.177 75.851 401.3 72.9791 402.367 69.7776L404.308 63.9559L417.124 63.8116C425.241 63.72 430.085 63.8551 430.334 64.1791C430.551 64.4606 431.445 66.8908 432.321 69.579C433.441 73.0197 433.859 74.8115 434.976 75.7409C436.363 76.895 438.829 76.7191 445.063 76.7191C451.934 76.7191 454.459 76.7448 455.015 75.6986C455.349 75.0692 454.97 74.052 454.396 72.4079C452.323 66.4721 427.436 3.60081 426.335 1.51867C425.8 0.506767 425.362 0.455584 417.209 0.455584C408.885 0.455584 408.623 0.487829 407.899 1.60721ZM424.203 45.88C424.113 45.5278 422.561 40.6935 420.753 35.1381C418.946 29.5821 417.321 25.0334 417.142 25.0298C416.844 25.0242 410.128 45.2545 410.134 46.1369C410.136 46.3478 413.339 46.5208 417.252 46.5208C422.699 46.5208 424.328 46.3708 424.203 45.88Z" fill="#000C2B" style="fill:#000C2B;fill:color(display-p3 0.0000 0.0471 0.1686);fill-opacity:1;"/>
<path d="M88.1228 24.3302C88.1228 4.57484 88.2082 2.23217 88.9594 1.39173C89.7111 0.550785 90.7222 0.455584 98.9034 0.455584C106.669 0.455584 108.147 0.580472 108.935 1.30267C109.802 2.09704 109.86 3.45699 109.86 23.2041C109.86 40.3864 110.001 44.8077 110.628 47.244C111.853 52.0056 113.769 54.3549 118.201 56.5307C121.058 57.9332 126.214 58.2285 129.647 57.1869C132.472 56.3301 135.367 53.5872 137.001 50.2183L138.422 47.2885L138.573 24.7801C138.706 4.97407 138.822 2.16256 139.536 1.36358C140.255 0.559487 141.369 0.455584 149.272 0.455584C156.179 0.455584 158.419 0.619883 159.178 1.18188C160.115 1.87542 160.166 2.78955 160.307 21.5273C160.463 42.359 160.067 49.3604 158.424 54.7153C155.356 64.7217 146.585 73.3164 136.328 76.3695C125.933 79.463 112.692 78.0422 104.403 72.9443C95.7571 67.6263 90.4608 59.699 88.6541 49.3697C88.3376 47.5598 88.1228 37.4424 88.1228 24.3302Z" stroke="#EA1198" style="stroke:#EA1198;stroke:color(display-p3 0.9176 0.0667 0.5961);stroke-opacity:1;" stroke-width="2" mask="url(#path-3-inside-2_80_33)"/>
<path d="M171.533 38.5331C171.533 5.56165 171.608 2.24394 172.37 1.39173C173.159 0.508815 174.632 0.455584 198.307 0.455584C219.169 0.455584 223.574 0.577912 224.39 1.18085C225.269 1.8314 225.388 2.68309 225.535 9.41526C225.679 15.9647 225.588 17.0498 224.825 17.903C223.999 18.8269 223.065 18.8817 208.105 18.8817H192.259V24.2559V29.6302H205.132C217.342 29.6302 218.032 29.6814 218.529 30.6201C218.816 31.1647 219.052 34.5684 219.052 38.184C219.052 47.7876 220.262 47.0326 204.869 47.0326H192.259V52.151V57.2693L207.299 57.2765C215.57 57.2801 222.834 57.4183 223.44 57.5826C224.046 57.7474 224.697 58.2623 224.887 58.7275C225.517 60.2738 225.759 73.8216 225.182 75.3115L224.638 76.7191H198.609C173.392 76.7191 172.563 76.6884 172.056 75.7292C171.71 75.0735 171.533 62.5121 171.533 38.5331Z" stroke="#EA1198" style="stroke:#EA1198;stroke:color(display-p3 0.9176 0.0667 0.5961);stroke-opacity:1;" stroke-width="2" mask="url(#path-3-inside-2_80_33)"/>
<path fill-rule="evenodd" clip-rule="evenodd" d="M30.7465 0.709966C18.5524 3.03319 7.91786 11.5742 3.11949 22.8991C-1.08541 32.822 -0.808385 47.6688 3.7529 56.8839C8.44714 66.3677 15.2514 72.4386 24.8259 75.6867C34.9888 79.1339 48.5246 78.7772 57.3635 74.8294L60.2212 73.5529L63.4298 76.0931C65.1945 77.4904 67.1064 78.7797 67.6781 78.9589C68.5148 79.2209 69.6749 78.2981 73.618 74.2346C79.7403 67.9252 79.7843 67.6135 75.0334 64.1817L71.5484 61.6645L72.6757 60.1064C77.1081 53.9808 78.6716 48.4509 78.6878 38.8432C78.6984 32.4274 78.5862 31.5987 77.1192 27.2512C75.0016 20.9781 71.9214 15.8664 67.6771 11.5839C64.0601 7.93401 58.4686 4.24573 53.9538 2.53159C47.3568 0.0266655 38.1342 -0.69707 30.7465 0.709966ZM58.2972 39.0992C58.2972 30.7491 53.3902 23.48 46.0617 20.9746C42.1197 19.6264 35.8543 19.5568 32.4132 20.8225C24.9786 23.5568 20.3132 30.464 20.2409 38.8432C20.1539 48.908 26.4132 56.7365 36.1824 58.7813C39.0901 59.3899 44.4193 59.0817 44.9106 58.2771C45.0481 58.0524 44.3596 57.3676 43.3814 56.7554C40.912 55.2102 40.3195 53.947 41.3306 52.3839C43.2353 49.4408 48.8365 43.4498 49.6837 43.4498C50.1903 43.4498 51.7619 44.5031 53.1763 45.7904C54.5903 47.0777 55.9582 47.9984 56.2165 47.8372C57.1988 47.2225 58.2972 42.6098 58.2972 39.0992Z" stroke="#EA1198" style="stroke:#EA1198;stroke:color(display-p3 0.9176 0.0667 0.5961);stroke-opacity:1;" stroke-width="2" mask="url(#path-3-inside-2_80_33)"/>
<path fill-rule="evenodd" clip-rule="evenodd" d="M236.745 38.8171C236.745 5.27759 236.818 1.99007 237.583 1.21566C238.343 0.445859 240.297 0.389045 258.688 0.603504C272.156 0.760638 279.804 1.04931 281.483 1.46441C286.323 2.66057 291.012 5.33389 293.997 8.59786C297.565 12.5001 298.924 16.258 298.924 22.226C298.924 25.8677 298.724 26.7992 297.351 29.5811C295.804 32.7166 292.206 36.2866 289.82 37.0528C288.263 37.5534 288.61 38.1139 291.066 39.0633C294.08 40.2288 298.11 44.151 299.454 47.2261C301.859 52.7314 301.135 61.3983 297.834 66.6062C295.002 71.074 289.613 74.6902 283.6 76.1566C280.243 76.9755 238.406 76.9658 237.431 76.1463C236.865 75.6708 236.745 69.1352 236.745 38.8171ZM276.462 47.2701C279.567 48.5835 280.59 52.7155 278.57 55.786C276.577 58.8156 274.403 59.4958 265.939 59.74L258.482 59.9554V53.2381V46.5208H266.587C272.559 46.5208 275.157 46.7178 276.462 47.2701ZM277.692 24.7816C277.692 21.6814 276.523 19.4882 274.389 18.5853C273.17 18.0699 270.528 17.858 265.323 17.858H257.977V24.5119V31.1657L264.422 31.1626C271.818 31.1596 274.252 30.6324 276.262 28.5978C277.419 27.4257 277.692 26.6984 277.692 24.7816Z" stroke="#EA1198" style="stroke:#EA1198;stroke:color(display-p3 0.9176 0.0667 0.5961);stroke-opacity:1;" stroke-width="2" mask="url(#path-3-inside-2_80_33)"/>
<path fill-rule="evenodd" clip-rule="evenodd" d="M311.43 1.34413C310.612 2.25929 310.551 4.87375 310.551 38.9093C310.551 66.6789 310.697 75.6386 311.157 76.1049C311.586 76.5389 314.538 76.7191 321.213 76.7191C329.364 76.7191 330.705 76.608 330.97 75.9093C331.139 75.4641 331.277 70.1666 331.277 64.1371V53.1746H334.231C336.413 53.1746 337.389 53.4091 337.963 54.0704C338.39 54.5627 341.644 59.3423 345.196 64.6909C348.746 70.0396 352.112 74.9338 352.674 75.5674C353.67 76.6894 353.957 76.7191 363.909 76.7191C375.723 76.7191 376.163 76.5727 374.248 73.2729C372.88 70.9143 363.737 57.5877 360.749 53.5974C359.553 52 358.575 50.5766 358.575 50.4343C358.575 50.292 359.642 49.6409 360.947 48.9878C364.467 47.2261 368.461 43.027 370.202 39.2583C374.924 29.0416 372.889 16.842 365.182 9.15679C361.39 5.37637 358.075 3.51994 352.256 1.91739C348.548 0.896274 346.716 0.785206 330.26 0.582007C313.044 0.369083 312.273 0.400306 311.43 1.34413ZM345.571 36.693C353.237 34.3672 354.082 23.933 346.928 19.9197C344.92 18.7931 343.941 18.6324 337.975 18.4527L331.277 18.2511V27.7794V37.3077H337.411C340.785 37.3077 344.456 37.0314 345.571 36.693Z" stroke="#EA1198" style="stroke:#EA1198;stroke:color(display-p3 0.9176 0.0667 0.5961);stroke-opacity:1;" stroke-width="2" mask="url(#path-3-inside-2_80_33)"/>
<path fill-rule="evenodd" clip-rule="evenodd" d="M407.899 1.60721C406.986 3.01783 405.281 7.21386 390.428 44.6004C381.642 66.7147 378.765 74.4798 379.003 75.4385L379.32 76.7191H389.32C395.887 76.7191 399.509 76.5266 399.872 76.1591C400.177 75.851 401.3 72.9791 402.367 69.7776L404.308 63.9559L417.124 63.8116C425.241 63.72 430.085 63.8551 430.334 64.1791C430.551 64.4606 431.445 66.8908 432.321 69.579C433.441 73.0197 433.859 74.8115 434.976 75.7409C436.363 76.895 438.829 76.7191 445.063 76.7191C451.934 76.7191 454.459 76.7448 455.015 75.6986C455.349 75.0692 454.97 74.052 454.396 72.4079C452.323 66.4721 427.436 3.60081 426.335 1.51867C425.8 0.506767 425.362 0.455584 417.209 0.455584C408.885 0.455584 408.623 0.487829 407.899 1.60721ZM424.203 45.88C424.113 45.5278 422.561 40.6935 420.753 35.1381C418.946 29.5821 417.321 25.0334 417.142 25.0298C416.844 25.0242 410.128 45.2545 410.134 46.1369C410.136 46.3478 413.339 46.5208 417.252 46.5208C422.699 46.5208 424.328 46.3708 424.203 45.88Z" stroke="#EA1198" style="stroke:#EA1198;stroke:color(display-p3 0.9176 0.0667 0.5961);stroke-opacity:1;" stroke-width="2" mask="url(#path-3-inside-2_80_33)"/>
<rect x="448.14" y="32" width="33" height="16" rx="8" fill="#EA1198" style="fill:#EA1198;fill:color(display-p3 0.9176 0.0667 0.5961);fill-opacity:1;"/>
</svg>
